<svg width="64" height="65" viewBox="0 0 64 65" fill="none" xmlns="http://www.w3.org/2000/svg">
<g clip-path="url(#clip0)">
<path d="M25.1642 22.6881C28.3742 22.6887 30.9764 20.0865 30.9758 16.8765V7.999H53.5827C53.5838 4.78899 50.9811 2.18624 47.771 2.18738H25.1642V11.0649C25.1648 14.2749 22.5626 16.877 19.3526 16.8765H10.4751V57.3978C10.4745 60.6078 13.0767 63.2105 16.2867 63.2094V22.6881H25.1642Z" fill="#D4E1F4"/>
<path d="M42.2218 31.9867L32.9521 24.2137C32.938 24.1989 32.9232 24.1842 32.909 24.1842C32.8943 24.17 32.8653 24.1552 32.8506 24.141C32.8364 24.1263 32.8216 24.1263 32.8069 24.1115C32.7927 24.0973 32.7637 24.0826 32.749 24.0684C32.7342 24.0536 32.7053 24.0536 32.6911 24.0389C32.6763 24.0247 32.6474 24.0247 32.6326 24.0099C32.6184 23.9957 32.5889 23.9957 32.5747 23.981C32.5458 23.9662 32.531 23.9662 32.5021 23.952C32.4873 23.952 32.4584 23.9373 32.4436 23.9373C32.4147 23.9373 32.4005 23.9231 32.371 23.9231C32.3568 23.9231 32.3278 23.9083 32.3131 23.9083C32.2841 23.9083 32.2552 23.8936 32.2257 23.8936H32.1826C32.0906 23.8794 31.9975 23.8794 31.9062 23.8936H31.8625C31.8335 23.8936 31.8046 23.9083 31.7756 23.9083C31.7609 23.9083 31.7319 23.9231 31.7172 23.9231C31.6882 23.9231 31.674 23.9373 31.6445 23.9373C31.6303 23.9373 31.6014 23.952 31.5866 23.952C31.5577 23.9662 31.5429 23.9662 31.514 23.981C31.4992 23.9957 31.4703 23.9957 31.4561 24.0099C31.4266 24.0247 31.4124 24.0247 31.3976 24.0389C31.3835 24.0536 31.3539 24.0536 31.3398 24.0684C31.3176 24.0792 31.2978 24.0939 31.2813 24.1115C31.2671 24.1263 31.2524 24.1263 31.2382 24.141C31.216 24.1518 31.1962 24.1666 31.1797 24.1842C31.1655 24.1989 31.1508 24.1989 31.136 24.2137L21.8669 31.9867C21.2529 32.5043 21.1745 33.4215 21.6921 34.035C22.2097 34.649 23.1269 34.7268 23.741 34.2092L30.6275 28.4413V49.6826C30.6275 50.4851 31.2779 51.1355 32.0804 51.1355C32.8829 51.1355 33.5333 50.4851 33.5333 49.6826V28.4413L40.4204 34.2092C41.039 34.7206 41.9539 34.636 42.4687 34.0208C42.9335 33.3829 42.8256 32.4941 42.2218 31.9867Z" fill="#1AE5BE"/>
<path d="M47.7709 0.734449H25.164C25.1152 0.732179 25.0658 0.736719 25.0187 0.749205C24.9898 0.749205 24.9461 0.763394 24.9171 0.763394H24.8734C24.8297 0.77815 24.786 0.77815 24.7571 0.792338H24.7423C24.7032 0.804824 24.664 0.819013 24.6265 0.836039H24.6118C24.5704 0.84966 24.5312 0.868956 24.4954 0.894496C24.4875 0.894496 24.4813 0.900739 24.4813 0.908684C24.4489 0.931386 24.4148 0.950682 24.3791 0.967141C24.3649 0.967141 24.3649 0.981329 24.3502 0.981329C24.3212 0.996086 24.2923 1.02503 24.2633 1.03979L24.2338 1.06873C24.2049 1.09768 24.1612 1.12662 24.1322 1.15556L24.118 1.17032L9.32734 15.961C9.32734 15.9752 9.31258 15.9752 9.31258 15.99C9.28818 16.0155 9.26888 16.045 9.25469 16.0774C9.25469 16.0915 9.23994 16.0915 9.23994 16.1063C9.2178 16.1381 9.19794 16.1721 9.18205 16.2079C9.18205 16.2158 9.17524 16.2226 9.16729 16.2226C9.14516 16.2595 9.12586 16.2987 9.1094 16.3384V16.3532C9.09692 16.3929 9.08273 16.4315 9.0657 16.4695V16.4837C9.05095 16.5212 9.0413 16.5603 9.03676 16.6001V16.6438C9.03676 16.6727 9.022 16.7164 9.022 16.7453C9.022 16.789 9.00781 16.8469 9.00781 16.8906V57.3977C9.00895 61.4091 12.2604 64.6606 16.2723 64.6623H47.7709C51.7828 64.6606 55.0343 61.4091 55.0354 57.3977V7.99897C55.0343 3.98759 51.7828 0.736152 47.7709 0.734449ZM23.7111 5.68908V11.0648C23.7037 13.4689 21.7565 15.4162 19.3524 15.4235H13.9766L23.7111 5.68908ZM52.1296 57.3977C52.1228 59.8018 50.1755 61.7496 47.7709 61.7565H16.2723C13.8677 61.7496 11.9204 59.8018 11.9136 57.3977V18.3294H19.3376C23.349 18.3277 26.601 15.0762 26.6022 11.0648V3.64026H47.7567C50.1608 3.64707 52.108 5.59487 52.1154 7.99897V57.3977H52.1296Z" fill="#1343DB"/>
</g>
<defs>
<clipPath id="clip0">
<rect width="63.9284" height="63.9284" fill="white" transform="translate(-0.000366211 0.733887)"/>
</clipPath>
</defs>
</svg>