<?xml version="1.0" standalone="no"?>
<!DOCTYPE svg PUBLIC "-//W3C//DTD SVG 20010904//EN"
 "http://www.w3.org/TR/2001/REC-SVG-20010904/DTD/svg10.dtd">
<svg version="1.0" xmlns="http://www.w3.org/2000/svg"
 width="460.000000pt" height="460.000000pt" viewBox="0 0 460.000000 460.000000"
 preserveAspectRatio="xMidYMid meet">
<metadata>
Created by potrace 1.14, written by Peter Selinger 2001-2017
</metadata>
<g transform="translate(0.000000,460.000000) scale(0.100000,-0.100000)"
fill="#000000" stroke="none">
<path d="M1665 4050 c-27 -10 -142 -51 -255 -90 -113 -39 -209 -75 -214 -80
-5 -5 -1 -28 9 -53 l17 -45 138 49 139 48 -98 -152 c-54 -84 -173 -269 -266
-412 -92 -143 -188 -291 -212 -330 -129 -205 -271 -419 -279 -422 -5 -1 -70
93 -143 210 -74 116 -168 263 -208 325 l-72 112 -76 0 c-41 0 -75 -4 -75 -9 0
-5 17 -36 39 -68 21 -32 129 -197 240 -367 l202 -308 -93 -142 c-117 -179
-311 -476 -354 -542 -41 -62 -42 -70 -7 -68 16 1 51 3 78 3 l50 1 155 240 c85
132 178 276 205 319 28 44 53 80 56 81 4 0 30 -37 60 -82 29 -46 89 -139 134
-208 237 -365 226 -350 254 -351 44 -2 124 1 127 4 2 1 -42 72 -96 157 -55 85
-122 191 -150 235 -28 44 -89 139 -135 210 -47 72 -85 135 -85 142 0 10 106
179 295 468 29 44 148 229 265 410 289 447 320 495 324 495 3 0 4 -29 5 -207
l1 -113 54 0 53 0 -2 118 c-2 64 -4 190 -6 280 -2 107 -6 162 -13 161 -6 0
-33 -9 -61 -19z"/>
<path d="M1530 2450 l0 -750 70 0 70 0 0 750 0 750 -70 0 -70 0 0 -750z"/>
<path d="M2107 2473 c1 -400 2 -738 2 -750 1 -19 8 -22 57 -25 30 -1 61 0 67
4 9 5 12 84 12 302 0 163 2 297 5 297 3 1 94 2 203 3 l198 1 76 -140 c42 -77
84 -153 93 -170 9 -16 40 -75 70 -130 95 -180 80 -165 170 -165 l78 0 -169
310 c-93 170 -169 313 -169 317 0 5 23 19 51 31 238 110 302 486 119 695 -47
54 -100 87 -186 119 -55 20 -81 22 -369 26 l-310 4 2 -729z m593 592 c92 -20
172 -82 212 -164 33 -67 33 -224 0 -296 -28 -61 -64 -100 -117 -127 -78 -41
-127 -47 -344 -45 l-206 2 0 310 c-1 171 1 315 3 321 3 13 395 12 452 -1z"/>
<path d="M3450 2450 l0 -750 70 0 70 0 0 303 0 302 202 0 203 0 73 -135 c40
-74 94 -173 119 -220 25 -47 66 -122 90 -167 l45 -83 79 0 80 0 -47 88 c-26
48 -55 101 -64 117 -68 118 -233 426 -229 428 2 1 30 15 61 30 145 73 222 224
213 417 -7 170 -85 297 -222 365 -94 46 -154 53 -460 54 l-283 2 0 -751z m590
616 c127 -29 212 -115 236 -236 20 -106 -9 -240 -64 -295 -86 -88 -143 -102
-409 -104 l-213 -2 0 323 0 324 208 -1 c114 -1 223 -5 242 -9z"/>
<path d="M2744 1622 c-6 -4 -10 -72 -9 -177 0 -162 1 -170 20 -170 19 0 20 8
20 168 0 163 -5 196 -31 179z"/>
<path d="M3483 1623 c-10 -4 -13 -48 -13 -178 0 -168 1 -174 20 -172 19 1 20
8 20 174 0 94 -3 174 -7 176 -5 2 -14 2 -20 0z"/>
<path d="M3920 1570 c0 -27 -8 -35 -32 -31 -18 3 -6 -31 12 -36 18 -5 20 -14
20 -97 0 -79 3 -95 20 -114 27 -29 80 -30 80 -2 0 14 -7 20 -24 20 -31 0 -36
15 -35 110 1 78 1 79 27 82 27 3 39 32 15 34 -7 1 -20 2 -28 3 -10 1 -15 12
-15 31 0 23 -4 30 -20 30 -16 0 -20 -7 -20 -30z"/>
<path d="M2201 1527 c-82 -42 -89 -194 -12 -240 56 -33 136 -14 159 37 10 23
9 26 -9 26 -11 0 -28 -9 -37 -19 -28 -32 -85 -31 -106 2 -31 48 -27 114 9 150
24 24 82 22 97 -3 7 -11 23 -20 35 -20 20 0 21 3 12 23 -22 49 -96 71 -148 44z"/>
<path d="M2473 1520 c-35 -21 -44 -50 -16 -50 9 0 24 6 32 14 31 28 89 24 100
-6 13 -36 3 -45 -58 -52 -70 -8 -101 -32 -101 -80 0 -45 34 -76 86 -76 22 0
46 6 52 12 10 10 17 10 33 0 11 -7 23 -10 28 -8 4 3 7 53 7 112 -2 103 -3 107
-29 130 -35 30 -90 32 -134 4z m121 -142 c-1 -10 -2 -25 -3 -34 -2 -24 -65
-46 -96 -34 -21 8 -26 16 -23 38 2 20 11 29 35 37 51 17 88 13 87 -7z"/>
<path d="M2919 1524 c-77 -50 -76 -199 2 -239 50 -27 116 -16 146 24 30 39 -4
59 -35 20 -42 -51 -119 -17 -128 56 -12 100 81 158 134 84 13 -19 42 -15 42 5
0 7 -11 23 -24 35 -33 31 -101 38 -137 15z"/>
<path d="M3167 1532 c-3 -6 -1 -160 2 -200 1 -7 12 -24 26 -37 30 -31 73 -32
109 -4 25 19 26 19 26 2 0 -12 8 -19 20 -20 19 -2 20 4 20 130 0 126 -1 133
-20 134 -19 2 -20 -4 -20 -91 0 -79 -3 -95 -20 -114 -24 -26 -62 -29 -84 -6
-18 18 -18 13 -20 123 -1 72 -4 84 -18 87 -10 1 -19 -1 -21 -4z"/>
<path d="M3660 1533 c-24 -9 -50 -35 -50 -50 0 -16 36 -18 45 -2 12 18 49 27
76 17 46 -16 43 -68 -4 -68 -50 0 -108 -23 -121 -49 -16 -31 -6 -76 21 -97 25
-18 97 -18 113 1 14 17 35 21 25 5 -3 -6 1 -13 10 -17 26 -9 31 9 30 118 -1
98 -2 102 -29 125 -26 23 -78 31 -116 17z m106 -153 c1 -41 -25 -68 -75 -76
-26 -5 -51 16 -51 41 0 28 11 36 60 46 48 9 65 7 66 -11z"/>
<path d="M4148 1525 c-38 -22 -58 -65 -58 -127 0 -44 5 -60 28 -87 23 -28 36
-34 78 -38 43 -5 54 -2 81 21 28 24 48 69 46 104 0 6 -1 25 -2 42 0 17 -13 43
-29 61 -34 38 -100 49 -144 24z m105 -37 c16 -17 34 -60 31 -75 -1 -7 -2 -24
-3 -36 -3 -56 -63 -85 -116 -57 -41 22 -49 110 -14 154 23 29 80 37 102 14z"/>
<path d="M4417 1533 c-4 -3 -7 -63 -7 -133 0 -119 1 -126 20 -127 19 -2 20 4
20 93 0 104 15 134 65 134 18 0 25 5 25 20 0 27 -39 27 -68 0 l-22 -21 0 21
c0 19 -19 27 -33 13z"/>
<path d="M105 906 c-14 -14 -25 -34 -25 -44 0 -11 -12 -25 -27 -32 -28 -14
-28 -14 -5 -18 19 -3 22 -8 18 -30 -3 -15 -8 -43 -10 -62 -3 -19 -9 -56 -14
-82 -7 -37 -7 -48 4 -48 14 0 20 15 29 75 22 139 24 145 57 145 25 0 28 3 19
14 -7 8 -21 12 -33 9 -18 -5 -19 -3 -13 18 11 34 23 47 48 51 29 4 28 22 0 26
-14 2 -32 -6 -48 -22z"/>
<path d="M972 907 c-17 -20 0 -40 22 -24 15 11 16 15 3 25 -11 10 -17 9 -25
-1z"/>
<path d="M872 888 c-1 -13 -4 -32 -6 -43 -3 -11 -5 -28 -5 -39 -1 -17 -2 -17
-18 3 -40 47 -130 22 -157 -44 -18 -44 -24 -88 -15 -119 16 -59 90 -77 137
-33 22 20 24 20 20 3 -5 -28 20 -32 26 -4 3 13 15 82 27 153 11 72 23 133 26
138 2 4 -4 7 -14 7 -12 0 -19 -8 -21 -22z m-55 -86 c32 -20 34 -93 5 -148 -17
-33 -67 -50 -98 -34 -13 7 -25 22 -25 32 -1 10 -2 28 -3 41 -3 28 29 93 51
106 21 12 53 14 70 3z"/>
<path d="M1945 888 c-9 -42 -45 -265 -45 -282 0 -29 30 -18 32 12 1 30 1 27
12 92 5 25 10 52 11 60 1 8 6 35 10 60 3 25 9 53 11 63 4 11 0 17 -10 17 -9 0
-18 -10 -21 -22z"/>
<path d="M1690 865 c0 -18 -8 -29 -27 -37 -27 -11 -27 -12 -5 -16 25 -4 25
-12 2 -132 -7 -34 -5 -51 6 -67 17 -28 64 -32 64 -6 0 9 -3 13 -6 10 -12 -11
-43 13 -40 31 2 9 9 49 16 89 10 65 14 72 36 75 14 2 24 8 24 13 -1 6 -10 9
-20 7 -16 -3 -20 3 -20 27 0 21 -5 31 -15 31 -9 0 -15 -9 -15 -25z"/>
<path d="M2977 883 c-4 -3 -7 -17 -7 -30 0 -16 -6 -23 -20 -23 -11 0 -20 -4
-20 -10 0 -5 7 -10 16 -10 14 0 15 -7 10 -37 -17 -100 -19 -165 -5 -174 23
-14 59 -11 59 7 0 8 -4 13 -9 9 -5 -3 -16 1 -24 9 -12 12 -12 25 -2 80 7 36
11 66 8 66 -2 0 1 9 7 21 7 11 18 18 25 15 7 -2 19 2 25 10 10 12 8 14 -14 14
-22 0 -26 4 -26 30 0 29 -9 38 -23 23z"/>
<path d="M3977 860 c-5 -22 -12 -30 -28 -30 -12 0 -19 -5 -16 -12 2 -7 12 -12
22 -10 12 3 16 -1 12 -12 -3 -8 -11 -51 -17 -96 -8 -62 -8 -85 1 -96 16 -19
69 -19 69 1 0 8 -6 12 -13 9 -29 -11 -38 21 -27 92 15 98 18 104 46 104 14 0
24 6 24 14 0 9 -8 12 -25 8 -24 -4 -25 -2 -20 27 7 42 -20 43 -28 1z"/>
<path d="M255 831 c-70 -21 -119 -119 -91 -185 18 -43 39 -58 82 -58 68 0 124
67 124 149 0 68 -54 112 -115 94z m68 -38 c33 -38 21 -119 -25 -158 -35 -29
-58 -32 -87 -7 -28 23 -33 66 -14 113 24 61 92 89 126 52z"/>
<path d="M510 833 c-8 -3 -23 -13 -33 -21 -16 -15 -17 -14 -11 2 5 14 3 17
-11 15 -10 -2 -19 -12 -21 -22 -1 -10 -8 -51 -14 -90 -6 -40 -14 -84 -16 -99
-3 -20 0 -28 11 -28 8 0 16 9 16 20 1 11 2 23 3 28 1 4 6 30 10 57 13 79 38
114 84 115 14 0 22 5 20 12 -5 14 -18 18 -38 11z"/>
<path d="M959 827 c-1 -14 -5 -42 -19 -112 -20 -105 -21 -125 -6 -125 15 0 18
11 36 130 6 41 14 82 16 91 3 9 -2 19 -11 23 -8 3 -15 0 -16 -7z"/>
<path d="M1108 822 c-26 -14 -35 -15 -31 -5 3 7 -1 13 -10 13 -11 0 -18 -20
-27 -72 -7 -40 -14 -82 -16 -93 -14 -70 -14 -75 0 -75 9 0 18 27 29 88 13 71
21 91 43 110 15 13 33 21 40 18 17 -6 30 12 17 25 -5 5 -23 2 -45 -9z"/>
<path d="M1228 817 c-66 -45 -92 -134 -54 -189 11 -18 33 -35 47 -39 32 -8 96
13 114 38 17 23 0 30 -24 9 -47 -42 -120 -21 -126 37 -4 30 -8 29 105 31 l75
1 3 36 c6 75 -76 119 -140 76z m94 -24 c10 -9 18 -27 18 -40 0 -21 -5 -23 -47
-24 -54 -1 -96 1 -102 6 -6 7 29 49 51 62 32 17 58 16 80 -4z"/>
<path d="M1479 821 c-48 -25 -78 -82 -75 -142 1 -26 8 -54 15 -63 22 -26 71
-35 110 -19 48 19 80 63 46 63 -8 0 -15 -4 -15 -10 0 -11 -53 -40 -74 -40 -27
0 -56 41 -56 79 0 43 31 97 64 112 32 15 73 4 81 -21 7 -23 35 -27 35 -5 0 15
-33 54 -47 56 -5 0 -17 2 -29 4 -11 3 -36 -4 -55 -14z"/>
<path d="M2106 830 c-16 -5 -33 -15 -37 -22 -7 -10 -9 -8 -9 5 0 9 -7 17 -15
17 -8 0 -16 -8 -16 -17 -3 -37 -6 -61 -12 -84 -3 -13 -9 -46 -13 -74 -3 -27
-8 -54 -11 -58 -3 -5 3 -7 12 -5 10 1 19 10 20 18 3 17 13 78 21 125 6 37 46
75 79 75 38 0 55 -36 44 -90 -19 -97 -21 -130 -6 -130 14 0 23 38 33 134 2 22
6 42 9 44 6 7 -24 62 -34 62 -5 0 -15 2 -23 4 -7 2 -26 0 -42 -4z"/>
<path d="M2439 833 c-9 -2 -38 -46 -65 -98 -26 -52 -51 -95 -55 -95 -5 0 -32
137 -34 175 0 5 -8 11 -18 13 -14 3 -17 -1 -13 -20 3 -13 12 -59 21 -103 23
-111 25 -117 42 -113 8 2 44 58 79 126 36 67 63 121 62 121 -2 -1 -10 -3 -19
-6z"/>
<path d="M2545 826 c-39 -17 -64 -46 -80 -91 -27 -82 9 -146 83 -147 47 0 111
37 93 55 -7 7 -16 6 -28 -5 -48 -42 -107 -33 -124 19 -6 19 -8 37 -5 40 3 4
45 7 93 7 l88 1 3 36 c6 67 -60 112 -123 85z m79 -38 c21 -29 20 -56 0 -60 -9
-2 -43 -1 -75 0 -58 4 -58 4 -46 29 23 50 95 69 121 31z"/>
<path d="M2772 824 c-73 -30 -66 -103 12 -123 51 -13 60 -22 52 -56 -9 -36
-69 -45 -100 -16 -28 26 -46 27 -39 2 17 -65 149 -52 174 17 11 29 -24 68 -70
79 -49 12 -63 39 -32 64 30 24 66 24 83 0 10 -14 18 -17 28 -11 13 8 12 12 -5
29 -27 26 -64 32 -103 15z"/>
<path d="M3103 825 c-6 -11 -14 -42 -17 -68 -4 -26 -11 -71 -16 -99 -13 -66
-13 -68 5 -68 8 0 15 8 16 18 0 9 2 24 4 32 2 8 6 31 9 50 14 78 18 91 39 105
27 19 51 19 70 1 12 -12 12 -27 0 -107 -7 -50 -11 -94 -8 -97 13 -13 24 19 39
102 8 49 21 93 28 98 26 17 59 20 74 7 17 -14 16 -38 -2 -166 -4 -27 -2 -43 5
-43 16 0 33 76 34 154 2 68 1 71 -26 84 -25 12 -33 11 -67 -6 -33 -16 -41 -17
-52 -5 -28 27 -106 20 -109 -11 -1 -6 -4 0 -8 14 -7 24 -8 24 -18 5z"/>
<path d="M3535 833 c-53 -14 -105 -86 -105 -147 0 -69 58 -113 124 -95 30 9
66 36 66 51 0 13 -20 9 -36 -7 -38 -38 -108 -26 -120 20 -11 46 -3 51 90 49
47 -1 87 2 87 7 9 59 -7 98 -46 114 -19 8 -36 14 -37 14 -2 -1 -12 -4 -23 -6z
m58 -35 c9 -7 18 -25 21 -40 4 -23 1 -27 -22 -30 -53 -6 -122 4 -122 17 0 20
58 65 84 65 12 0 30 -6 39 -12z"/>
<path d="M3768 820 c-29 -15 -36 -16 -32 -5 4 9 0 15 -10 15 -9 0 -17 -8 -18
-17 0 -10 -2 -22 -3 -28 -3 -20 -27 -161 -31 -177 -1 -10 3 -18 10 -18 9 0 18
24 26 68 18 102 28 128 56 141 63 28 90 4 80 -72 -16 -122 -17 -137 -7 -137
16 0 19 10 31 99 14 104 9 126 -31 140 -18 6 -33 11 -33 11 -1 0 -18 -9 -38
-20z"/>
<path d="M4143 829 c-21 -6 -38 -20 -48 -39 -22 -43 -4 -75 50 -89 23 -6 48
-17 54 -25 18 -22 -7 -55 -48 -62 -28 -6 -38 -3 -52 15 -20 24 -39 28 -39 7 0
-19 27 -46 48 -47 59 -4 94 9 117 45 25 37 6 72 -47 87 -72 21 -82 35 -48 69
25 25 62 26 85 0 27 -30 47 -12 22 21 -16 21 -55 29 -94 18z"/>
<path d="M4284 625 c-3 -8 -3 -19 1 -25 11 -17 35 -11 35 9 0 23 -29 36 -36
16z"/>
<path d="M4386 615 c-6 -17 17 -31 34 -20 5 3 10 13 10 21 0 19 -36 18 -44 -1z"/>
<path d="M4497 623 c-3 -5 -2 -15 3 -22 10 -17 43 -6 38 12 -6 15 -34 22 -41
10z"/>
</g>
</svg>
